# xmcd
# Track frame offsets:
# 150
# 26102
# 50708
# 78003
# 117621
# 138341
# 151691
# 171414
# 197403
# 213929
# 246585
# 259146
# 270986
# 283096
# 311004
# 330474
#
# Disc length: 4540 seconds
# Revision: 1
# Processed by: cddbd v1.5.2PL0 Copyright (c) Steve Scherf et al.
# Submitted via: VisiTrax 2.10.3.257 - For more info visit www.synapsa.com
#
DISCID=e711ba10
DTITLE=Various Artist - Alan Douglas Story
DYEAR=2007
DGENRE=Jazz
TTITLE0=Charlie Rouse - Cravo e Canela
TTITLE1=Jazzonia - Little boy don't get scared
TTITLE2=Randy Weston - Portrait of Edward Weston
TTITLE3=Konitz - Metheny - Corea - Vitous - DeJohnette - All Blues
TTITLE4=Le Duo - Isabelle
TTITLE5=The Jazz Committee For Latin American Affairs - Autumn Leaves
TTITLE6=Pharoah Sanders and Bill Laswell - Morning Tala
TTITLE7=Dave Burrell - Black Robert
TTITLE8=Dizzy Gillespie - Desafinado
TTITLE9=John McLaughlin - Peace one
TTITLE10=Modern Jazz Quartet - The Sheriff
TTITLE11=David Murray - Shout Song
TTITLE12=Jerry Garcia - Da Birg Song
TTITLE13=The Jazz Committee For Latin American Affairs - It's All Right With Me
TTITLE14=Le Duo - Comme ils Disent
TTITLE15=Triad - Message to Love
EXTD=YEAR: 2007
EXTT0=
EXTT1=
EXTT2=
EXTT3=
EXTT4=
EXTT5=
EXTT6=
EXTT7=
EXTT8=
EXTT9=
EXTT10=
EXTT11=
EXTT12=
EXTT13=
EXTT14=
EXTT15=
PLAYORDER=
